<svg width="40.618" height="53.684" xmlns="http://www.w3.org/2000/svg"><defs><clipPath clipPathUnits="userSpaceOnUse" id="a"><path d="M0 0h7680v11344H0z" transform="matrix(.25 0 0 .25 -278 -32.114)" clip-rule="evenodd"/></clipPath></defs><path d="M29.387 29.401l-6.206-7.029h2.38c.7 0 1.319-.388 1.614-1.015a1.712 1.712 0 00-.255-1.868l-6.07-7.06h2.245a1.76 1.76 0 001.62-1.057 1.728 1.728 0 00-.329-1.87L15.82.374c-.468-.5-1.342-.5-1.811 0L5.442 9.501a1.73 1.73 0 00-.33 1.87 1.761 1.761 0 001.622 1.058h2.244l-6.07 7.062a1.715 1.715 0 00-.254 1.867 1.765 1.765 0 001.615 1.014h2.379l-6.206 7.03a1.717 1.717 0 00-.277 1.884c.292.625.933 1.03 1.632 1.03H12.43v1.898l-2.353 3.76c-.413.827.188 1.8 1.111 1.8h7.455c.923 0 1.525-.973 1.111-1.8l-2.353-3.76v-1.899h10.632c.7 0 1.34-.404 1.632-1.03a1.717 1.717 0 00-.277-1.884z" transform="translate(.412 .275) scale(1.33333)" clip-path="url(#a)" fill="#414141"/></svg>